<mxfile host="app.diagrams.net" modified="2023-10-19T06:44:23.606Z" agent="Mozilla/5.0 (Windows NT 10.0; Win64; x64) AppleWebKit/537.36 (KHTML, like Gecko) Chrome/118.0.0.0 Safari/537.36 Edg/118.0.2088.46" version="22.0.4" etag="_9hvbURA5GyLLhf60jBM" type="github">
  <diagram name="第 1 页" id="Yn4q6pPPQGq_Ad1S3hQy">
    <mxGraphModel>
      <root>
        <mxCell id="0" />
        <mxCell id="1" parent="0" />
      </root>
    </mxGraphModel>
  </diagram>
</mxfile>
